HIERARCHY
ROOT Hips
{
  OFFSET -331.093 83.8371 -317.828
  CHANNELS 6 Xposition Yposition Zposition Zrotation Xrotation Yrotation
  JOINT LeftUpLeg
  {
    OFFSET 8.64259 1.95398 -2.38835
    CHANNELS 3 Zrotation Xrotation Yrotation
    JOINT LeftLeg
    {
      OFFSET 43.7702 0 0
      CHANNELS 3 Zrotation Xrotation Yrotation
      JOINT LeftFoot
      {
        OFFSET 40.6238 0 0
        CHANNELS 3 Zrotation Xrotation Yrotation
        JOINT LeftToeBase
        {
          OFFSET 12.7242 0 0
          CHANNELS 3 Zrotation Xrotation Yrotation
          End Site
          {
            OFFSET 0 0 0
          }
        }
      }
    }
  }
  JOINT RightUpLeg
  {
    OFFSET -8.2249 1.95398 -2.59336
    CHANNELS 3 Zrotation Xrotation Yrotation
    JOINT RightLeg
    {
      OFFSET 43.5653 0 0
      CHANNELS 3 Zrotation Xrotation Yrotation
      JOINT RightFoot
      {
        OFFSET 40.6238 0 0
        CHANNELS 3 Zrotation Xrotation Yrotation
        JOINT RightToeBase
        {
          OFFSET 12.7242 0 0
          CHANNELS 3 Zrotation Xrotation Yrotation
          End Site
          {
            OFFSET 0 0 0
          }
        }
      }
    }
  }
  JOINT Spine
  {
    OFFSET 0.165834 0.87714 6.61349
    CHANNELS 3 Zrotation Xrotation Yrotation
    JOINT Spine1
    {
      OFFSET 7.38963 1.71661e-005 0
      CHANNELS 3 Zrotation Xrotation Yrotation
      JOINT Spine2
      {
        OFFSET 11.9445 1.14441e-005 0
        CHANNELS 3 Zrotation Xrotation Yrotation
        JOINT Spine3
        {
          OFFSET 14.7254 4.19617e-005 0
          CHANNELS 3 Zrotation Xrotation Yrotation
          JOINT Spine4
          {
            OFFSET 10.9679 0 0
            CHANNELS 3 Zrotation Xrotation Yrotation
            JOINT RightShoulder
            {
              OFFSET 2.46616 -1.6653 3.69651
              CHANNELS 3 Zrotation Xrotation Yrotation
              JOINT RightArm
              {
                OFFSET 13.0012 0 0
                CHANNELS 3 Zrotation Xrotation Yrotation
                JOINT RightForeArm
                {
                  OFFSET 28.7848 1.62311e-005 0
                  CHANNELS 3 Zrotation Xrotation Yrotation
                  JOINT RightHand
                  {
                    OFFSET 26.5688 1.62095e-005 0
                    CHANNELS 3 Zrotation Xrotation Yrotation
                    End Site
                    {
                      OFFSET 0 0 0
                    }
                  }
                }
              }
            }
            JOINT LeftShoulder
            {
              OFFSET 2.38034 -1.29275 -3.7523
              CHANNELS 3 Zrotation Xrotation Yrotation
              JOINT LeftArm
              {
                OFFSET 16.3182 6.07031e-005 0
                CHANNELS 3 Zrotation Xrotation Yrotation
                JOINT LeftForeArm
                {
                  OFFSET 27.0901 0 0
                  CHANNELS 3 Zrotation Xrotation Yrotation
                  JOINT LeftHand
                  {
                    OFFSET 24.5451 1.51738e-005 0
                    CHANNELS 3 Zrotation Xrotation Yrotation
                    End Site
                    {
                      OFFSET 0 0 0
                    }
                  }
                }
              }
            }
            JOINT Neck
            {
              OFFSET 5.0226 -0.0266342 0
              CHANNELS 3 Zrotation Xrotation Yrotation
              JOINT Head
              {
                OFFSET 6.69364 2.86102e-005 0
                CHANNELS 3 Zrotation Xrotation Yrotation
                End Site
                {
                  OFFSET 0 0 0
                }
              }
            }
          }
        }
      }
    }
  }
}
MOTION
Frames:	17
Frame Time:	0.0416667
60.643 88.3532 12.3236 28.7408 -78.6412 32.8748 -166.271 58.2148 86.8909 -42.9716 7.36077 -6.87607 57.7246 -2.1334 2.02085 34.4157 12.806 24.1351 169.319 10.774 72.6468 -38.0503 -18.5 -8.67451 56.5228 2.53529 1.53294 58.6259 -5.88239 -13.2317 1.07502 8.3501 -90.1051 10.1782 2.09416 -0.385893 -1.49109 2.07516 -0.477727 -24.0397 2.11327 0.261624 -4.02708 2.11328 0.261625 93.6445 -36.1526 -97.5787 31.1472 -6.67201 0.570745 -19.6925 4.90158 -98.1065 -37.4676 -2.38197 2.23467 -93.1718 -46.499 73.5303 -56.8127 16.8624 47.7948 20.6133 6.32152 -68.2022 22.1514 2.43046 7.19932 -4.76547 6.42569 0.270033 15.7557 7.71914 9.28462 
65.0877 90.1904 21.1715 38.2406 -76.8328 44.4813 -172.099 55.2608 91.4059 -27.9217 11.4828 -5.92159 50.6696 -6.71238 0.12091 33.4953 10.9228 22.1606 165.986 2.78702 72.4036 -28.3531 -18.792 -8.25772 45.1379 8.38426 6.80733 38.6661 -2.79471 -13.2992 1.3268 8.09952 -90.2398 10.6849 2.53197 -0.706409 -0.983873 2.49842 -0.817235 -23.5389 2.62713 0.0877218 -3.52623 2.62713 0.0877164 93.9506 -35.5223 -97.1627 30.8217 -6.65095 4.54633 -18.0099 6.10501 -100.726 -37.6732 -2.12239 1.37819 -91.1642 -44.3236 76.0522 -59.6986 13.7501 51.6699 19.0984 3.2223 -70.575 22.166 2.09854 5.65857 -6.93356 4.72532 0.51377 16.0638 5.65177 6.56391 
69.0758 91.9008 29.8609 42.5304 -75.1615 51.8967 -174.615 53.7187 94.6782 -20.7731 11.8238 -4.81516 47.7979 -8.34129 -0.480527 32.3244 6.19473 12.2029 167.654 -3.63449 76.1053 -26.2079 -16.3725 -9.64597 43.1376 9.11609 7.75562 22.1541 -0.793688 -14.7874 1.61916 7.77854 -90.3943 11.334 3.0383 -1.08858 -0.334007 2.98746 -1.22134 -22.8975 3.22486 -0.124218 -2.88485 3.22486 -0.124214 93.9375 -35.319 -97.2338 30.651 -7.51571 9.15919 -18.0143 5.81756 -101.051 -38.7379 -2.69868 2.88643 -89.6372 -42.1995 77.9512 -60.4142 10.7375 54.3354 18.7846 0.897625 -73.2211 21.3974 1.83298 4.75254 -8.91177 3.4423 0.186679 16.1381 4.08778 4.43838 
72.6604 92.5298 37.9022 44.2878 -73.7757 55.5248 -174.06 54.4353 95.5359 -23.395 6.97238 -5.11436 48.8204 -8.05334 -1.17382 29.7191 4.36729 14.405 171.235 -5.75722 80.1732 -32.636 -9.76028 -9.7023 46.75 6.39746 5.23965 24.0503 -1.04741 -14.6757 1.83178 7.56091 -90.3378 11.7725 3.4844 -1.0419 0.105673 3.43517 -1.19441 -22.467 3.63623 0.0548258 -2.45439 3.63624 0.0548318 93.8343 -35.5256 -97.3767 31.2666 -9.05757 12.5505 -17.3452 5.52412 -98.9808 -39.1011 -2.75059 2.94644 -88.8383 -41.7493 79.1456 -57.99 8.39383 53.9909 17.3474 -0.567317 -74.9839 21.4601 1.81707 4.65144 -8.42459 2.42057 -0.519071 15.4701 2.86123 2.84715 
76.4808 92.2476 45.8302 50.4969 -70.6275 62.39 -172.669 54.1388 92.7822 -29.0655 4.70155 -5.32176 49.4749 -7.90893 -1.61542 24.8725 -0.0639545 15.3932 173.524 -5.17857 83.5376 -44.2095 -6.03681 -8.54377 46.844 5.99952 4.90164 24.252 -1.01069 -13.735 1.71629 7.45663 -90.0862 11.9727 3.37187 -0.53717 0.305896 3.34496 -0.685225 -22.2639 3.37726 0.502235 -2.25125 3.37724 0.502221 93.458 -37.225 -97.6704 31.9088 -10.1158 15.0562 -16.8555 4.93709 -94.3904 -35.1024 -2.45871 2.93761 -88.5324 -41.459 79.5761 -53.3875 6.73561 51.1386 14.7323 -1.3128 -75.4915 22.249 2.08148 5.54796 -7.36469 1.57053 -1.57048 14.7211 1.75826 0.593105 
80.2258 92.1466 53.8152 58.7703 -67.804 69.7932 -171.17 50.6738 89.4065 -34.8812 11.2629 -5.99326 51.8263 -6.2198 0.6663 22.7528 -3.3605 7.70449 174.742 -3.60775 86.2226 -57.6761 -4.52348 -7.14829 44.6677 6.78094 5.62991 21.8249 -0.518202 -11.2393 1.36255 7.57406 -89.9458 11.7318 2.73558 -0.178864 0.0637634 2.72506 -0.299187 -22.4938 2.66276 0.652166 -2.48117 2.66277 0.652161 92.9969 -36.454 -98.688 33.4022 -12.2893 17.3627 -15.4179 2.93788 -88.3951 -31.3884 -1.98276 2.16141 -89.1132 -44.5211 79.3456 -46.8994 5.36699 46.4683 11.8242 -1.38754 -75.1662 23.8972 2.38252 6.20396 -7.5055 1.19351 0.683903 14.7555 0.789485 -2.2976 
84.092 91.953 61.5492 65.6753 -65.3207 74.8509 -170.174 46.0106 86.1542 -41.7738 14.7345 -6.32639 59.0976 -0.399785 4.25711 25.1796 -2.02824 3.51484 174.778 0.374785 87.0739 -71.8064 -2.73021 -5.32836 42.6758 6.92503 5.86024 23.2252 -0.567581 -9.6015 0.997457 7.74983 -89.6267 11.3695 2.15893 0.526186 -0.299713 2.17999 0.430614 -22.8456 1.90096 1.15089 -2.83296 1.90094 1.15089 92.3985 -36.955 -99.6452 34.7711 -14.8765 19.4901 -14.2049 0.538667 -82.6259 -27.9096 -2.01055 3.24802 -89.4868 -46.7719 79.2607 -40.4911 3.15703 41.0664 9.20989 -1.71458 -75.3519 23.6095 2.38056 6.3174 -7.41006 1.20443 1.6673 14.4426 0.404399 -4.58266 
87.8989 91.3841 68.9748 68.4784 -64.3358 76.0945 -168.643 41.7191 83.8544 -47.3692 15.462 -6.69956 64.7858 5.5252 7.87634 30.2528 1.95592 3.55754 175.112 7.3185 87.7806 -86.631 1.37428 -3.93361 42.9808 5.57587 4.6338 24.9654 -0.795577 -10.1672 0.861186 7.90801 -89.2064 11.0442 2.08231 1.37902 -0.625712 2.14098 1.28601 -23.1635 1.57165 1.94105 -3.15082 1.57166 1.94105 92.0019 -38.9266 -99.8422 35.578 -17.137 21.0584 -12.4713 -0.739074 -77.4339 -23.2453 -1.60911 2.90364 -91.0044 -48.5062 77.35 -34.2288 1.32678 35.4432 8.21681 -1.99727 -76.9826 25.5001 2.84971 7.43901 -6.34342 1.21463 -0.0402159 14.5838 0.470464 -5.06742 
91.2148 90.8669 75.6243 69.3357 -63.3337 76.393 -167.145 38.2528 82.5363 -50.7389 15.0913 -6.87262 64.855 7.80802 11.8771 41.7725 10.0641 0.506606 175.159 18.161 90.1805 -100.848 4.98286 -3.07768 43.6535 3.91631 3.15548 27.4105 -1.27125 -12.2046 0.654902 8.08014 -88.9454 10.6943 1.79001 1.93273 -0.976756 1.87334 1.85209 -23.5049 1.12656 2.38115 -3.49224 1.12658 2.38116 91.374 -39.7336 -100.727 37.0228 -18.7061 22.1325 -12.5144 -2.39935 -72.6116 -18.6195 -1.18649 2.24852 -92.9303 -50.2786 74.9279 -28.2573 -0.576006 27.9628 6.83282 -2.19785 -78.4438 27.896 3.27501 7.98743 -3.93402 1.4337 -0.468579 14.1322 0.624445 -5.94737 
94.7636 90.4877 81.7367 70.9316 -59.2194 77.9955 -168.859 33.826 82.2213 -52.2554 14.5982 -5.75611 68.685 10.7401 11.3979 45.1894 12.5338 -0.0479691 171.402 30.8825 93.1614 -111.131 7.57474 -2.79275 42.5776 2.64468 2.20496 29.09 -1.7013 -13.7834 0.189652 8.18926 -88.9257 10.4842 0.870829 2.0582 -1.18808 0.96055 2.0179 -23.7105 0.212159 2.22469 -3.69786 0.212156 2.22468 91.2309 -40.3135 -100.82 38.5309 -21.2682 24.5533 -11.9097 -4.11573 -68.76 -17.0687 -1.0116 1.70222 -94.6655 -50.0147 72.3029 -24.7951 -1.1077 19.9589 9.63163 -1.35564 -79.7114 30.7616 4.00562 9.35257 -1.95462 1.38875 -0.785646 12.6983 0.709249 -5.86751 
98.8444 90.4233 88.2398 69.2981 -55.9997 77.5375 -171.001 29.6687 83.2815 -51.3387 17.817 -5.00125 69.4447 12.7561 13.8087 48.9167 16.0971 1.07777 167.126 43.7074 98.6429 -116.251 9.80259 -2.952 44.627 1.20467 1.03341 29.9538 -1.8871 -14.4467 -0.22749 8.05997 -89.0714 10.75 -0.0247551 1.84859 -0.922251 0.0566163 1.84787 -23.4476 -0.579088 1.75573 -3.43494 -0.5791 1.75573 90.95 -40.444 -101.267 40.364 -23.3928 28.8468 -11.7001 -4.81507 -67.2388 -15.8292 -0.685961 -0.363472 -93.693 -48.2009 73.2273 -24.4365 -1.88724 13.5047 12.8625 -1.20016 -84.1013 30.2283 4.05616 9.74212 -0.62424 1.82151 -0.995021 11.1078 1.26837 -5.72267 
103.49 90.9227 95.2221 69.379 -53.2301 78.2915 -173.077 23.0804 84.4886 -48.0299 20.1657 -3.70648 69.2734 13.2877 14.5159 49.913 17.807 2.74548 163.477 53.5907 102.89 -116.047 10.9597 -2.77131 47.8566 0.669916 0.477043 32.0558 -2.43435 -16.0127 -0.629881 7.93539 -89.252 11.0072 -0.907293 1.57516 -0.66445 -0.837105 1.61354 -23.197 -1.33873 1.2297 -3.18438 -1.33871 1.22973 90.9242 -41.2658 -101.092 41.7158 -24.9492 34.679 -13.8164 -5.43042 -68.2691 -13.9025 -0.525282 -1.19522 -92.3857 -46.2271 74.6604 -25.3444 -1.54812 9.69064 15.4838 -3.19412 -90.8727 30.5976 3.96962 9.29008 -0.659714 2.31209 -1.85198 10.2548 2.03468 -4.5418 
108.585 92.6036 102.845 70.4855 -50.8737 81.1735 -174.05 14.7378 88.7252 -41.3224 25.4751 -2.58138 65.7863 9.47421 12.8948 48.1364 17.583 5.25652 161.287 59.0486 106.385 -109.749 9.35073 -1.87754 50.7073 0.736048 0.416901 31.1099 -1.88096 -13.1957 -0.965712 7.90701 -89.6522 11.068 -1.76086 0.864097 -0.602092 -1.72114 0.94076 -23.1463 -1.93915 0.294766 -3.13362 -1.93913 0.294769 91.2887 -41.0549 -100.527 43.3624 -25.9556 40.3581 -13.6802 -4.87746 -70.1617 -13.0892 -0.39047 -2.23195 -91.5287 -45.1716 75.7035 -25.4441 -0.126999 7.28704 16.7801 -5.63747 -98.114 30.8467 4.24573 10.0975 -0.281375 2.76611 -1.70705 8.8845 2.61863 -3.52081 
113.86 94.6926 110.868 72.0138 -50.2119 82.9164 -173.654 3.6325 88.8798 -29.8019 27.3665 -1.56319 58.1952 -0.273076 3.51456 42.9752 17.7748 15.0475 164.481 61.6126 105.177 -99.9359 4.91174 -0.92697 53.1325 1.61811 0.901588 32.0204 -2.00946 -13.2299 -1.11613 7.89737 -89.8615 11.084 -2.15735 0.484713 -0.585345 -2.13391 0.579222 -23.1346 -2.20322 -0.186371 -3.12199 -2.20322 -0.186376 91.5371 -40.6117 -100.217 45.2027 -25.1304 45.3892 -13.5309 -4.2751 -70.8264 -13.1309 -0.356942 -2.53716 -90.9716 -44.2544 76.3366 -25.7317 1.17523 7.13121 18.5262 -8.94605 -105.609 31.4632 4.4671 10.5501 -0.552031 3.05055 -1.89285 7.91399 3.07731 -2.04864 
119.349 96.6513 118.986 73.7308 -52.9968 85.0472 -171.264 -9.90341 94.5982 -10.7309 25.175 -0.890357 43.8362 -10.5969 -7.75121 30.487 5.73273 16.349 171.158 61.5239 103.231 -86.3981 2.8988 -0.312652 52.716 2.87721 1.92027 33.356 -2.14461 -12.9268 -0.855263 7.95841 -90.0538 10.9587 -1.72763 0.05609 -0.711014 -1.72348 0.132087 -23.2554 -1.66458 -0.465895 -3.24274 -1.66457 -0.465889 91.7782 -40.129 -99.925 46.2256 -23.4694 49.2263 -13.4827 -3.58836 -71.292 -12.7114 -0.237781 -3.63563 -90.6915 -43.8364 76.672 -25.5286 2.02465 7.88829 17.5503 -11.7333 -112.817 30.9697 4.05608 9.41309 -0.994885 2.917 -1.92026 7.02228 3.06981 -0.697998 
124.333 98.6899 126.236 72.5128 -46.9853 85.1543 -171.16 -11.403 97.4061 -8.54472 32.1284 0.227184 37.5199 -14.1028 -9.96277 18.4293 -6.51201 12.116 170.094 61.284 100.417 -69.573 1.9183 1.71946 50.8348 3.81002 2.83611 33.6114 -2.58693 -15.4105 -1.52107 7.6889 -90.3399 11.4947 -3.18504 -0.351995 -0.172341 -3.19744 -0.211322 -22.7347 -2.93188 -1.29374 -2.72206 -2.93189 -1.29374 91.8901 -39.7339 -99.8314 47.1228 -22.2618 52.1403 -12.8312 -3.05382 -71.5159 -12.203 -0.321759 -2.64011 -90.1589 -42.8615 77.2739 -26.1951 2.71491 10.074 16.8769 -14.1095 -119.052 29.284 3.29543 7.53326 -1.12229 3.15001 -3.10946 5.22903 3.59173 1.34111 
129.896 99.8605 133.935 71.3114 -47.0184 82.6598 -172.017 -14.0134 96.4618 -9.4176 27.3931 0.725898 37.4234 -13.4477 -8.86332 14.4294 -9.9649 14.7881 175.269 59.6567 95.5467 -52.3213 1.62663 1.53987 50.1002 4.08782 3.12854 28.0486 -1.58711 -14.2933 -1.54598 7.46722 -90.242 11.9415 -3.18791 -0.138316 0.274428 -3.19094 0.00227294 -22.2893 -2.99883 -1.09088 -2.27668 -2.99884 -1.09089 92.505 -38.6516 -99.0251 48.1186 -20.8746 53.6019 -13.5935 -3.28054 -71.5113 -11.522 -0.169523 -4.25561 -89.7208 -41.7949 77.7143 -27.3578 5.54351 11.3309 15.2545 -15.9846 -123.399 29.9433 2.82922 5.67989 -1.42699 2.89864 -4.21959 4.53388 3.57428 3.13332 
